<?xml version="1.0" encoding="UTF-8" standalone="no"?>
<svg width="597px" height="149px" viewBox="0 0 597 149" version="1.1" xmlns="http://www.w3.org/2000/svg" xmlns:xlink="http://www.w3.org/1999/xlink">
    <!-- Generator: Sketch 3.7.2 (28276) - http://www.bohemiancoding.com/sketch -->
    <title>Slice 1</title>
    <desc>Created with Sketch.</desc>
    <defs>
        <polygon id="path-1" points="0.06 0.982 0.06 146.34 22.874 146.34 22.874 0.982 0.06 0.982"></polygon>
        <polygon id="path-3" points="0.01 145.94 263.07 145.94 263.07 0.272 0.01 0.272 0.01 145.94"></polygon>
    </defs>
    <g id="Page-1" stroke="none" stroke-width="1" fill="none" fill-rule="evenodd">
        <g id="lifehacker">
            <g id="Group-3" transform="translate(0.000000, 1.000000)">
                <mask id="mask-2" fill="white">
                    <use xlink:href="#path-1"></use>
                </mask>
                <g id="Clip-2"></g>
                <polyline id="Fill-1" fill="#000000" mask="url(#mask-2)" points="22.874 146.34 0 146.34 0 0.982 22.874 2.457 22.874 146.34"></polyline>
            </g>
            <path d="M60.318,147.34 L37.445,147.34 L37.445,43.671 L60.318,44.962 L60.318,147.34 L60.318,147.34 Z M48.882,12.127 C56.076,12.127 61.979,18.03 61.979,25.224 C61.979,32.419 56.076,38.322 48.882,38.322 C41.687,38.322 35.785,32.419 35.785,25.224 C35.785,18.03 41.687,12.127 48.882,12.127 L48.882,12.127 Z" id="Fill-4" fill="#000000"></path>
            <g id="Group-8" transform="translate(74.000000, 0.000000)" fill="#000000">
                <path d="M40.919,64.515 L40.919,87.388 L23.764,87.388 L23.764,147.24 L0.89,147.24 L0.89,33.525 C0.89,16.186 15.278,0.506 32.249,0.506 C37.967,0.506 42.579,2.167 43.686,2.904 L42.763,24.855 L32.249,24.855 C27.637,24.855 23.764,28.729 23.764,33.525 L23.764,64.515 L40.919,64.515" id="Fill-5"></path>
                <path d="M73.045,84.437 L90.2,84.437 L90.2,73.739 C90.2,68.942 86.326,65.069 81.714,65.069 C76.918,65.069 73.045,68.942 73.045,73.739 L73.045,84.437 L73.045,84.437 Z M50.171,73.739 C50.171,56.398 64.19,42.195 81.714,42.195 C99.054,42.195 113.073,56.398 113.073,73.739 L113.073,95.875 C113.073,102.33 107.908,107.31 101.637,107.31 L73.045,107.31 L73.045,117.272 C73.045,122.067 76.918,125.942 81.714,125.942 L103.666,125.942 L104.404,145.311 L83.744,148.446 C63.821,151.767 50.171,134.611 50.171,117.272 L50.171,73.739 L50.171,73.739 Z" id="Fill-7"></path>
            </g>
            <path d="M206.633,147.34 L206.633,2.904 L221.391,2.904 L221.391,46.806 C225.449,45.515 231.905,44.962 236.332,44.962 C252.012,44.962 264.186,59.166 264.186,75.215 L264.186,147.34 L249.798,147.34 L249.798,75.215 C249.798,67.282 243.342,61.01 235.41,61.01 L221.391,61.01 L221.391,147.34 L206.633,147.34" id="Fill-9" fill="#000000"></path>
            <g id="Group-15" transform="translate(275.000000, 3.000000)">
                <mask id="mask-4" fill="white">
                    <use xlink:href="#path-3"></use>
                </mask>
                <g id="Clip-11"></g>
                <path d="M43.174,116.486 L43.174,91.583 L28.97,91.583 C21.039,91.583 14.767,97.855 14.767,105.786 L14.767,116.486 C14.767,124.417 21.039,130.873 28.97,130.873 C36.903,130.873 43.174,124.417 43.174,116.486 L43.174,116.486 Z M43.174,69.816 C43.174,61.515 39.3,54.874 28.786,55.982 L28.97,55.982 C23.067,56.166 15.505,56.903 9.233,57.272 C9.049,51.923 8.864,49.894 8.68,45.836 C13.66,43.991 20.854,42.146 26.942,41.962 C45.388,41.592 57.563,56.535 57.563,72.582 L57.563,116.486 C57.563,132.349 44.835,145.446 28.97,145.446 C13.107,145.446 0.01,132.349 0.01,116.486 L0.01,107.447 C0.01,91.583 10.893,79.593 28.97,79.593 C35.796,79.593 39.3,80.331 43.174,81.437 L43.174,69.816 L43.174,69.816 Z" id="Fill-10" fill="#000000" mask="url(#mask-4)"></path>
                <path d="M98.889,41.962 C114.754,41.962 127.85,54.874 127.85,70.923 L127.85,72.768 C122.132,72.952 117.52,72.952 113.278,73.136 L113.278,70.923 C113.278,63.175 106.821,56.72 98.889,56.72 C91.142,56.72 84.869,63.175 84.869,70.923 L84.869,117.039 C84.869,125.155 91.142,131.243 98.889,131.243 C106.637,131.243 113.093,125.34 113.278,117.592 C120.471,118.146 127.297,118.515 127.85,118.515 C127.112,133.825 114.2,146 98.889,146 C83.026,146 70.112,133.087 70.112,117.039 L70.112,70.923 C70.112,54.874 83.026,41.962 98.889,41.962" id="Fill-12" fill="#000000" mask="url(#mask-4)"></path>
                <path d="M185.991,144.34 L157.953,95.456 C155.185,90.661 155.185,90.107 158.506,84.388 L183.224,43.438 L200.011,43.438 L172.156,90.661 L202.224,144.34 L185.991,144.34 L185.991,144.34 Z M139.506,144.34 L154.263,144.34 L154.263,0.272 L139.506,0.272 L139.506,144.34 Z" id="Fill-13" fill="#000000" mask="url(#mask-4)"></path>
                <path d="M220.089,86.602 L248.497,86.602 L248.497,71.107 C248.497,63.175 242.04,56.72 234.293,56.72 C226.361,56.72 220.089,63.175 220.089,71.107 L220.089,86.602 L220.089,86.602 Z M205.332,71.107 C205.332,55.059 218.245,41.962 234.293,41.962 C250.156,41.962 263.07,55.059 263.07,71.107 L263.07,93.796 C263.07,98.04 259.749,101.175 255.691,101.175 L220.089,101.175 L220.089,116.854 C220.089,124.786 226.361,131.243 234.293,131.243 L252.924,131.243 C253.108,136.038 253.293,139.36 253.662,142.679 L235.953,145.446 C217.876,148.582 205.332,132.903 205.332,116.854 L205.332,71.107 L205.332,71.107 Z" id="Fill-14" fill="#000000" mask="url(#mask-4)"></path>
            </g>
            <path d="M565.771,147.34 L551.013,147.34 L551.013,75.399 C551.013,59.35 563.557,44.409 582.003,44.777 C588.275,44.962 592.149,46.438 596.392,48.467 C596.207,52.894 596.023,56.583 595.839,59.903 L579.79,59.535 C572.042,59.535 565.771,67.836 565.771,75.399 L565.771,147.34" id="Fill-16" fill="#000000"></path>
        </g>
    </g>
</svg>