<?xml version="1.0" encoding="UTF-8" standalone="no"?>
<svg width="166px" height="41px" viewBox="0 0 166 41" version="1.1" xmlns="http://www.w3.org/2000/svg" xmlns:xlink="http://www.w3.org/1999/xlink">
    <!-- Generator: Sketch 3.7.2 (28276) - http://www.bohemiancoding.com/sketch -->
    <title>Group 2</title>
    <desc>Created with Sketch.</desc>
    <defs></defs>
    <g id="Page-1" stroke="none" stroke-width="1" fill="none" fill-rule="evenodd">
        <g id="tnw-logo-white" fill="#000000">
            <g id="Group">
                <g id="Group-2">
                    <path d="M72.65308,4.52732 C69.83997,1.71421 66.02467,0.13386 62.04639,0.13386 L40.16666,0.13386 L40.16666,40.13386 L55.16666,40.13386 L55.16666,15.13386 L59.97531,15.13386 C61.30145,15.13386 62.57661,15.6606 63.51428,16.59825 L68.69526,21.77586 C69.63306,22.71351 70.16666,23.98533 70.16666,25.31147 L70.16666,40.13386 L85.16666,40.13386 L85.16666,23.2404 C85.16666,19.26227 83.57943,15.44697 80.76648,12.63386 L72.65308,4.52732 L72.65308,4.52732 Z" id="Shape"></path>
                    <path d="M150.16667,0.13386 L150.16667,14.95625 C150.16667,16.28224 149.63307,17.55406 148.69526,18.49171 L143.51063,23.66933 C142.57298,24.60713 141.30131,25.13386 139.97517,25.13386 L135.15293,25.13386 L132.76981,25.13386 C134.31537,22.73289 135.16666,19.92588 135.16666,17.02717 L135.16666,0.13386 L120.16666,0.13386 L120.16666,14.95625 C120.16666,16.28224 119.63306,17.55406 118.69525,18.49171 L113.51062,23.66933 C112.57297,24.60713 111.3013,25.13386 109.97516,25.13386 L105.16666,25.13386 L105.16666,0.13386 L90.16665,0.13386 L90.16665,40.13386 L112.04639,40.13386 C116.02466,40.13386 119.84348,38.55351 122.65644,35.7404 L127.66666,30.73231 L127.66666,40.13386 L142.04639,40.13386 C146.02466,40.13386 149.84348,38.55351 152.65644,35.7404 L160.76649,27.63371 C163.57945,24.82074 165.16667,21.00545 165.16667,17.02717 L165.16667,0.13386 L150.16667,0.13386 L150.16667,0.13386 Z" id="Shape"></path>
                    <polygon id="Shape" points="0.16667 15.13386 10.16667 15.13386 10.16667 40.13386 25.16665 40.13386 25.16665 15.13386 35.16666 15.13386 35.16666 0.13386 0.16667 0.13386"></polygon>
                </g>
            </g>
        </g>
    </g>
</svg>