<svg xmlns:svg="http://www.w3.org/2000/svg" xmlns="http://www.w3.org/2000/svg" version="1" width="1323" height="2073" viewBox="0 0 1323 2073"><path d="m950 1559-287 452-289-452" style="fill:#f6eedd;stroke-linecap:round;stroke-linejoin:round;stroke-width:125;stroke:#000"/><path d="M1112 1110C1190 981 1263 840 1260 685 1271 362 987 59 662 63 337 59 52 362 63 685c-3 155 69 296 148 425 80 138 162 286 162 449 94 18 191 24 289 27 98-3 193-9 288-27 0-164 82-311 162-449z" style="fill:#ffca30;stroke-linecap:round;stroke-linejoin:round;stroke-width:125;stroke:#000"/><rect y="1790" x="559" height="152" width="205" fill="#000"/></svg>