<svg width="360px" height="562px" viewBox="0 0 360 562" xmlns="http://www.w3.org/2000/svg"><title>Bulby (unpathed)</title><g fill="none" fill-rule="evenodd"><path fill="#FFF3D9" d="M257 420l-77 121-77-121"/><path d="M180 504l-60-95c-6-9-18.4-11.8-28-6-9 6-11.8 18.4-6 28l77 121c8 12 26 12 34 0l77-121c5.8-9.6 3-22-6-28-9.6-5.8-22-3-28 6l-60 95z" fill="#000"/><path d="M299 300c21.3-34.7 40.7-72.4 40-114 2.8-86-72.8-167-159-166-87-1-162.8 80-160 166-.7 41.6 18.5 79.3 40 114 20.8 36.7 42.7 76.2 43 120 24.7 4.6 50.5 6.2 77 7 25.7-.8 51-2.4 76-7 .3-44 22.2-83.3 43-120z" fill="#FFCA30"/><path d="M346.8 253c9-23 13.5-45 13-67.3 3.4-97-82.3-187-180-185.7C82.8-1.2-3.2 88.7 0 186.7-.2 208 4.3 230 13 253c7.2 18.2 16.7 36 30 57.5C57 335 64.6 349 71 365c8 19.6 12 37.5 12 55 0 9.7 7 18 16.4 19.7 23.4 4.3 47.7 6.3 80 7.3h1.2c32.2-1 56.2-3 80-7.3 9.4-1.7 16.3-10 16.4-19.7 0-17.6 4-35.5 12-55.2 6.5-15.7 13.7-29.3 28.3-55 13-21.2 22.4-38.8 29.5-57zM252 349.6c-9.8 24.2-14 31-14 54.2-58.2 7-58.2 7-116 0 0-23.2-4.3-30-14-54.2-7.4-18-15.3-33-30.6-59.7-26-42-38-72.3-37.3-103.7C37.7 110 105.3 39 180 40c75-1 142.6 69.8 140 145.3.7 32.2-11 61.8-37 104.3-15.7 27.5-23.4 42.3-30.7 60zM152.7 474h54.6v44h-54.6z" fill="#000"/></g></svg>