<svg width="360" height="562" xmlns="http://www.w3.org/2000/svg"><g fill="#FFF" fill-rule="evenodd"><path d="M180 504l-60-95c-6-9-18.4-11.8-28-6-9 6-11.8 18.4-6 28l77 121c8 12 26 12 34 0l77-121c5.8-9.6 3-22-6-28-9.6-5.8-22-3-28 6l-60 95z"/><path d="M346.8 253c9-23 13.5-45 13-67.3 3.4-97-82.3-187-180-185.7C82.8-1.2-3.2 88.7 0 186.7-.2 208 4.3 230 13 253c7.2 18.2 16.7 36 30 57.5C57 335 64.6 349 71 365c8 19.6 12 37.5 12 55 0 9.7 7 18 16.4 19.7 23.4 4.3 47.7 6.3 80 7.3h1.2c32.2-1 56.2-3 80-7.3 9.4-1.7 16.3-10 16.4-19.7 0-17.6 4-35.5 12-55.2 6.5-15.7 13.7-29.3 28.3-55 13-21.2 22.4-38.8 29.5-57zM152.7 474h54.6v44h-54.6z"/></g></svg>